<?xml version="1.0" encoding="utf-8"?>
<!-- Generator: Adobe Illustrator 26.2.1, SVG Export Plug-In . SVG Version: 6.00 Build 0)  -->
<svg version="1.1" id="Layer_1" xmlns="http://www.w3.org/2000/svg" xmlns:xlink="http://www.w3.org/1999/xlink" x="0px" y="0px"
	 viewBox="0 0 1920 1080" style="enable-background:new 0 0 1920 1080;" xml:space="preserve">
<style type="text/css">
	.st0{fill:#FFFFFF;}
	.st1{fill:#F56600;}
	.st2{fill:none;}
</style>
<g>
	<g>
		<path class="st0" d="M302.06,874.17c-14.66-6.19-27.39-11.18-39.81-16.87c-54.58-25-105.52-55.71-148.26-98.38
			c-45.77-45.7-76.88-99.44-86.58-164.33c-11.09-74.24,5.72-143.23,39.69-208.81c27.02-52.18,62.2-98.45,102.64-141.01
			c52.1-54.83,110.87-101.39,173.67-143.16c1.76-1.17,3.79-1.94,7.05-3.58c19.46,13.56,39.6,26.85,58.94,41.22
			c42.06,31.26,81.84,65.25,118,103.26c55.58,58.42,101.83,122.91,128.88,199.82c20.75,58.98,25.16,118.89,9.82,179.62
			c-13.21,52.31-40.98,96.46-78.78,134.6c-52.11,52.58-115.5,87.08-183.21,114.7c-1.86,0.76-4.15,0.46-6.91,0.71
			c0-45.88,0-91.23,0-141.11c16.94-16.14,36.6-34.28,55.61-53.09c38.38-37.96,76.53-76.15,114.41-114.6
			c3.87-3.93,6.56-9.98,7.68-15.49c2.85-13.96,10.7-21.41,23.56-20.52c10.7,0.73,20.34,10.92,20.38,21.52
			c0.04,11.73-9.43,21.09-22.46,22.13c-1.71,0.14-3.45,0.02-4.77,0.02c-58.17,57.9-116,115.45-173.74,172.91c0,32.06,0,64.29,0,98.4
			c5.43-2.04,9.42-3.26,13.16-4.99c55.38-25.57,106.37-57.54,148.54-102.32c38.31-40.69,63.99-88.23,72.51-143.43
			c7.84-50.79,0.67-100.76-17.24-148.95c-20.08-54-50.68-101.8-86.98-146.24c-38.73-47.41-83.72-88.23-131.83-125.72
			c-21.08-16.43-43.02-31.77-65.38-48.19c-10.49,6.93-20.31,12.98-29.67,19.67c-60.05,42.86-115.7,90.7-163.59,147.03
			c-39.69,46.68-72.85,97.47-93.76,155.5c-13.89,38.54-20.3,78.17-18.72,119.37c2.64,68.7,31.62,125.13,77.86,174.12
			c41.96,44.45,93.21,75.16,148.18,100.37c2.63,1.21,5.56,1.78,10.57,3.33c1.58-33.08,0.24-64.83,0.77-96.36
			c-58.01-57.84-115.72-115.39-174.28-173.78c-23.74-2.55-30.23-10.93-24.85-33.9c7.11-9.06,15.99-13.21,27.31-8.97
			c12.29,4.6,14.14,15.14,13.7,29.32c58.47,57.68,118.1,116.5,177.88,175.47C302.06,779.37,302.06,825.18,302.06,874.17z"/>
		<path class="st0" d="M335.8,601.07c0,126.58,0,252.35,0,380.28c-6.94-2.25-12.76-4.13-19.4-6.29c0-121.85,0-243.28,0-363.75
			c-48.54-48.14-96.09-95.3-144.76-143.56c-0.11,0.02-2.21,0.24-4.29,0.59c-12.93,2.16-23.37-4.81-25.78-17.26
			c-2.12-10.93,4.92-22.55,15.24-25.13c12.46-3.11,22.18,3.36,27.08,15.89c2.7,6.92,7.26,13.65,12.51,18.95
			c45.05,45.48,90.45,90.61,135.72,135.87C333.32,597.87,334.33,599.3,335.8,601.07z"/>
		<path class="st0" d="M383.04,613.49c0,117.73,0,239.15,0,361.45c-6.23,2.25-12.06,4.35-19.35,6.98c0-127.74,0-253.78,0-384.04
			c13.47-12.87,29.61-27.82,45.22-43.29c32.85-32.57,65.51-65.32,97.98-98.27c3.72-3.77,6.59-8.98,8.27-14.05
			c4.39-13.25,14.96-19.68,27.91-15.99c10.64,3.03,16.75,14.03,14.18,25.52c-2.67,11.93-13.82,18.96-26.34,16.58
			c-1.24-0.24-2.47-0.56-3.24-0.73C480.3,515.41,433.2,562.91,383.04,613.49z"/>
		<path class="st0" d="M339.81,273.45c-13.99-15.96-15.07-26.83-4.82-36.09c8.15-7.37,21.35-7.29,29.51,0.18
			c9.59,8.78,8.04,22.83-4.92,37.5c0,85.73,0,172.47,0,260.52c-6.9,0-12.91,0-19.77,0C339.81,447.32,339.81,360.17,339.81,273.45z"
			/>
		<path class="st0" d="M282.15,401.23c-15.49-15.05-30.64-29.75-46.47-45.13c-22.12-1.26-27.52-10.31-28.18-23.45
			c-0.57-11.42,10.25-20.91,21.98-20.84c14.22,0.09,20.6,8.08,22.13,30.85c16.05,14.99,33.99,31.74,50.13,46.81
			c0,49.62,0,96.02,0,145.57c-7.72-8.81-13.54-15.44-19.6-22.34C282.15,475.45,282.15,438.33,282.15,401.23z"/>
		<path class="st0" d="M417.89,401.23c15.49-15.05,30.64-29.75,46.47-45.13c22.12-1.26,27.52-10.31,28.18-23.45
			c0.57-11.42-10.25-20.91-21.98-20.84c-14.22,0.09-20.6,8.08-22.13,30.85c-16.05,14.99-33.99,31.74-50.13,46.81
			c0,49.62,0,96.02,0,145.57c7.72-8.81,13.54-15.44,19.6-22.34C417.89,475.45,417.89,438.33,417.89,401.23z"/>
	</g>
	<g>
		<path class="st1" d="M1053.86,569.3l-84.7-149.6h-36.3v149.6h-77V185.4h144.1c29.7,0,55,5.23,75.9,15.67
			c20.9,10.45,36.58,24.57,47.02,42.35c10.45,17.79,15.68,37.67,15.68,59.67c0,25.3-7.34,48.12-22,68.48
			c-14.67,20.35-36.49,34.38-65.45,42.08l91.85,155.65H1053.86z M932.86,361.95h64.35c20.9,0,36.48-5.04,46.75-15.12
			c10.26-10.08,15.4-24.11,15.4-42.07c0-17.6-5.14-31.26-15.4-40.98c-10.27-9.71-25.85-14.58-46.75-14.58h-64.35V361.95z"/>
		<path class="st1" d="M1213.63,215.38c-8.99-8.61-13.47-19.34-13.47-32.18c0-12.83,4.49-23.56,13.47-32.17
			c8.98-8.61,20.26-12.93,33.83-12.93c13.56,0,24.84,4.31,33.83,12.93c8.98,8.62,13.47,19.34,13.47,32.17
			c0,12.84-4.49,23.56-13.47,32.18c-8.99,8.62-20.26,12.92-33.83,12.92C1233.89,228.3,1222.61,224,1213.63,215.38z M1285.41,264.6
			v304.7h-77V264.6H1285.41z"/>
		<path class="st1" d="M1501.01,327.85h-53.35V569.3h-78.1V327.85h-34.65V264.6h34.65v-15.4c0-37.4,10.63-64.9,31.9-82.5
			c21.26-17.6,53.35-25.85,96.25-24.75v64.9c-18.7-0.36-31.72,2.75-39.05,9.35c-7.34,6.6-11,18.52-11,35.75v12.65h53.35V327.85z"/>
		<path class="st1" d="M1832.1,440.05h-222.75c1.83,22,9.53,39.24,23.1,51.7c13.56,12.47,30.25,18.7,50.05,18.7
			c28.6,0,48.95-12.28,61.05-36.85h83.05c-8.8,29.34-25.67,53.44-50.6,72.33c-24.94,18.89-55.55,28.33-91.85,28.33
			c-29.34,0-55.64-6.51-78.92-19.53c-23.29-13.01-41.44-31.44-54.45-55.27c-13.02-23.83-19.52-51.33-19.52-82.5
			c0-31.53,6.41-59.21,19.25-83.05c12.83-23.83,30.8-42.16,53.9-55c23.1-12.83,49.68-19.25,79.75-19.25
			c28.96,0,54.91,6.24,77.83,18.7c22.91,12.47,40.7,30.16,53.35,53.08c12.65,22.92,18.98,49.23,18.98,78.92
			C1834.3,421.35,1833.56,431.25,1832.1,440.05z M1754.55,388.35c-0.37-19.8-7.52-35.66-21.45-47.57
			c-13.94-11.91-30.99-17.88-51.15-17.88c-19.07,0-35.11,5.77-48.12,17.32c-13.02,11.55-20.99,27.59-23.92,48.12H1754.55z"/>
		<path class="st0" d="M1284.11,869.35h87.85v19.95h-112.35V644.65h24.5V869.35z"/>
		<path class="st0" d="M1407.48,741.78c7.81-14.81,18.66-26.25,32.55-34.3c13.88-8.05,29.58-12.08,47.08-12.08
			c18.2,0,33.89,4.2,47.07,12.6c13.18,8.4,22.69,19.13,28.53,32.2v-42h24.5v191.1h-24.5v-42.35c-6.07,13.07-15.7,23.86-28.88,32.38
			c-13.19,8.52-28.88,12.77-47.08,12.77c-17.27,0-32.84-4.08-46.72-12.25c-13.89-8.17-24.74-19.71-32.55-34.65
			c-7.82-14.93-11.73-32.2-11.73-51.8C1395.75,773.8,1399.66,756.6,1407.48,741.78z M1553.25,753.15
			c-6.3-11.66-14.88-20.65-25.72-26.95c-10.85-6.3-22.81-9.45-35.88-9.45c-13.54,0-25.67,3.04-36.4,9.1
			c-10.74,6.07-19.2,14.88-25.38,26.42c-6.18,11.55-9.27,25.26-9.27,41.12c0,15.64,3.09,29.35,9.27,41.12
			c6.18,11.79,14.64,20.77,25.38,26.95c10.73,6.19,22.87,9.28,36.4,9.28c13.06,0,25.02-3.15,35.88-9.45
			c10.85-6.3,19.42-15.28,25.72-26.95c6.3-11.67,9.45-25.2,9.45-40.6C1562.71,778.35,1559.55,764.82,1553.25,753.15z"/>
		<path class="st0" d="M1696.58,708c13.18-8.4,28.75-12.6,46.72-12.6c17.5,0,33.13,4.03,46.9,12.08
			c13.76,8.05,24.55,19.49,32.38,34.3c7.81,14.82,11.72,32.03,11.72,51.62c0,19.6-3.91,36.87-11.72,51.8
			c-7.82,14.93-18.67,26.48-32.55,34.65c-13.89,8.17-29.46,12.25-46.73,12.25c-18.2,0-33.89-4.14-47.07-12.42
			c-13.19-8.28-22.81-19.08-28.88-32.38v42h-24.15v-259h24.15v110.25C1673.65,727.25,1683.39,716.4,1696.58,708z M1800.18,752.28
			c-6.18-11.55-14.64-20.35-25.38-26.42c-10.73-6.06-22.87-9.1-36.4-9.1c-13.07,0-25.03,3.15-35.88,9.45
			c-10.85,6.3-19.42,15.29-25.73,26.95c-6.3,11.67-9.45,25.2-9.45,40.6c0,15.4,3.15,28.93,9.45,40.6
			c6.3,11.67,14.88,20.65,25.73,26.95c10.85,6.3,22.8,9.45,35.88,9.45c13.53,0,25.67-3.09,36.4-9.28
			c10.73-6.18,19.19-15.17,25.38-26.95c6.18-11.78,9.28-25.49,9.28-41.12C1809.45,777.54,1806.36,763.83,1800.18,752.28z"/>
	</g>
</g>
<g>
	<rect x="2728" y="708" class="st2" width="2.67" height="0"/>
</g>
</svg>
